<svg xmlns="http://www.w3.org/2000/svg" version="1.1" xmlns:xlink="http://www.w3.org/1999/xlink" viewBox="0 0 200 200"><rect width="200" height="200" fill="url('#gradient')"></rect><defs><linearGradient id="gradient" gradientTransform="rotate(57 0.5 0.5)"><stop offset="0%" stop-color="#dee90b"></stop><stop offset="100%" stop-color="#2fa98e"></stop></linearGradient></defs><g><g fill="#1b3855" transform="matrix(2.9266433788504287,0,0,2.9266433788504287,6.858400434151491,121.6595049372322)" stroke="#0e5278" stroke-width="0.2"><path d="M4.50-14.22L4.50-2.64L10.47-2.64L10.47 0L1.07 0L1.07-14.22L4.50-14.22ZM15.23-10.57L15.23 0L11.93 0L11.93-10.57L15.23-10.57ZM11.74-13.29L11.74-13.29Q11.74-13.99 12.25-14.44Q12.75-14.89 13.56-14.89Q14.38-14.89 14.88-14.44Q15.39-13.99 15.39-13.29Q15.39-12.59 14.88-12.14Q14.38-11.69 13.56-11.69Q12.75-11.69 12.25-12.14Q11.74-12.59 11.74-13.29ZM27.07-5.36L27.07-5.20Q27.07-2.60 26.00-1.20Q24.92 0.20 22.97 0.20L22.97 0.20Q21.36 0.20 20.37-1.08L20.37-1.08L20.23 0L17.29 0L17.29-15L20.58-15L20.58-9.72Q21.49-10.76 22.95-10.76L22.95-10.76Q24.92-10.76 26.00-9.35Q27.07-7.93 27.07-5.36L27.07-5.36ZM23.77-5.40L23.77-5.40Q23.77-6.92 23.36-7.57Q22.96-8.22 22.12-8.22L22.12-8.22Q21.01-8.22 20.58-7.37L20.58-7.37L20.58-3.17Q21.00-2.33 22.14-2.33L22.14-2.33Q23.30-2.33 23.61-3.47L23.61-3.47Q23.77-4.02 23.77-5.40ZM36.01-3.78L36.01-3.78Q36.01-4.53 35.47-4.95Q34.94-5.37 33.60-5.82Q32.27-6.27 31.42-6.69L31.42-6.69Q28.65-8.05 28.65-10.42L28.65-10.42Q28.65-11.60 29.34-12.50Q30.03-13.41 31.29-13.91Q32.55-14.41 34.12-14.41L34.12-14.41Q35.65-14.41 36.87-13.87Q38.09-13.32 38.76-12.31Q39.43-11.30 39.43-10L39.43-10L36.02-10Q36.02-10.87 35.48-11.35Q34.95-11.83 34.04-11.83L34.04-11.83Q33.13-11.83 32.59-11.42Q32.06-11.02 32.06-10.39L32.06-10.39Q32.06-9.84 32.65-9.40Q33.23-8.96 34.71-8.48Q36.18-8.01 37.13-7.46L37.13-7.46Q39.43-6.13 39.43-3.80L39.43-3.80Q39.43-1.93 38.03-0.87Q36.62 0.20 34.17 0.20L34.17 0.20Q32.44 0.20 31.04-0.42Q29.64-1.04 28.93-2.12Q28.22-3.20 28.22-4.61L28.22-4.61L31.66-4.61Q31.66-3.47 32.25-2.92Q32.84-2.38 34.17-2.38L34.17-2.38Q35.02-2.38 35.51-2.75Q36.01-3.12 36.01-3.78ZM44.84-14.22L44.84 0L41.43 0L41.43-14.22L44.84-14.22ZM47.23-14.22L51.73-14.22L54.90-4.33L58.07-14.22L62.58-14.22L62.58 0L59.14 0L59.14-3.32L59.47-10.12L56.04 0L53.77 0L50.32-10.13L50.65-3.32L50.65 0L47.23 0L47.23-14.22Z"></path></g></g></svg>